<svg width="55" height="92" viewBox="0 0 55 92" fill="none" xmlns="http://www.w3.org/2000/svg">
<g clip-path="url(#clip0_1_582)">
<path fillRule="evenodd" clipRule="evenodd" d="M8.39403 34.3308C7.51898 36.7068 6.9623 39.1824 6.35515 41.6354C5.86398 44.0039 5.96822 46.4601 6.34333 48.8378C7.30467 55.5653 11.832 60.973 14.3997 67.1026C15.9097 70.6006 17.2104 74.1814 18.3554 77.8144C19.274 80.4158 20.2317 83.0004 21.1442 85.6035C21.398 86.2993 21.6671 86.988 21.9456 87.6734L53.4855 94.5088C52.2244 92.5794 51.0481 90.5938 49.7702 88.6751C48.1688 86.087 46.4096 83.599 44.8489 80.9855C43.3517 78.3999 41.8977 75.7933 40.3764 73.2216C37.9544 68.7009 34.3583 64.3533 34.2778 58.9998C34.2855 57.4423 34.7086 55.7741 35.1277 54.334C35.6616 52.4992 36.3029 50.7452 37.1623 49.0645C38.7328 45.9264 41.3261 43.4588 42.5413 40.151C43.2345 38.2043 43.4088 36.1152 43.4753 34.0642C43.4648 32.5864 43.3927 30.9783 43.6475 29.556C43.9718 26.8215 45.4009 24.1046 44.5619 21.3398C44.2728 19.4447 42.1398 18.7918 40.6778 19.9213C40.5208 20.0496 40.3782 20.1911 40.2487 20.3426C40.3356 19.5605 40.4252 18.7793 40.5197 17.998C40.8862 15.7215 41.4896 13.4671 41.4903 11.1465C41.5098 9.86584 41.2356 8.41766 40.0811 7.67625C39.3557 7.2497 38.6826 7.19581 38.0971 7.39361C38.3892 6.50182 38.6447 5.6021 38.7405 4.66676C39.0183 1.67228 36.5775 0.825531 34.3945 2.57819C33.4194 3.34015 32.5323 4.29755 31.9643 5.40996C31.6824 4.10919 31.1305 3.14664 30.1692 2.82221C28.998 2.6006 27.8825 3.50874 27.3763 4.50417C26.7528 5.98483 26.7722 7.72361 26.2739 9.23631C25.0978 12.8018 24.0772 16.4876 22.0939 19.7097C21.5095 20.6562 20.8586 21.5701 20.3694 22.5711C19.5863 24.2209 19.131 26.0051 18.4261 27.689C18.2686 28.0764 18.1064 28.4618 17.9432 28.8471C17.918 28.163 17.8397 27.4814 17.6674 26.8065C17.1976 24.8137 16.4286 22.6896 14.6871 21.47C12.9871 20.3511 11.7923 20.9919 11.4649 22.9633C10.5692 26.7843 9.63326 30.6046 8.39403 34.3308Z" fill="#EFF5F6"/>
<path fillRule="evenodd" clipRule="evenodd" d="M17.6867 27.8362C17.8654 27.7802 17.9644 27.9237 18.0299 28.1093C18.1743 28.1547 18.2353 28.3295 18.2764 28.4705C18.9404 30.6316 18.4252 32.8797 18.5175 35.0822C18.6361 36.1457 19.0917 37.1279 19.6087 38.0519C21.8769 41.5923 23.6966 44.1834 22.7248 48.6491C22.6961 48.7489 22.5749 48.7962 22.4824 48.7621C22.2924 48.6706 22.3724 48.4559 22.4304 48.2577C22.4158 48.2363 22.4051 48.2119 22.4 48.1847C22.2815 47.4974 22.2136 46.8008 22.0737 46.116C21.7744 44.5372 21.0673 43.0628 20.1395 41.7463C19.4113 40.6708 18.5899 39.6545 17.7836 38.6287C17.1597 37.8539 16.6942 36.9261 16.6951 35.9117C16.6586 34.3768 17.0924 32.8824 17.4633 31.4036C17.6629 30.5896 17.9024 29.759 17.8217 28.9123C17.7866 28.6275 17.7246 28.3506 17.5979 28.0883C17.5537 27.9938 17.5933 27.8804 17.6867 27.8362ZM24.5621 46.7908C24.7313 46.0202 25.5152 45.5164 26.2867 45.6836C27.0592 45.851 27.5649 46.6363 27.3974 47.409C27.3647 47.56 27.3083 47.7008 27.233 47.8284C27.1013 48.4281 26.5973 48.8661 26.0167 48.952C26.1919 49.2547 26.2611 49.6195 26.1827 49.9813C26.0153 50.7537 25.23 51.2595 24.4573 51.092C23.6849 50.9246 23.1791 50.1393 23.3466 49.3666C23.4769 48.7652 23.9818 48.3256 24.5635 48.2394C24.3882 47.9367 24.3192 47.572 24.3976 47.2102C24.4304 47.0591 24.4869 46.9184 24.5621 46.7908ZM17.3574 65.5117C17.3626 65.2629 17.302 65.0206 17.1893 64.806C17.7969 64.4984 18.1304 63.7482 17.9605 63.0566C17.9124 62.8019 17.816 62.5919 17.6867 62.4236C18.383 62.4626 19.0405 61.9823 19.192 61.2831C19.2597 60.9709 19.2173 60.6567 19.0919 60.3819C19.7271 60.3464 20.2986 59.8873 20.4386 59.2414C20.4907 59.0011 20.4776 58.7594 20.4117 58.5356C21.0104 58.4641 21.5356 58.0181 21.6689 57.4028C21.7272 57.1338 21.7039 56.8634 21.6161 56.6181C21.6881 56.6049 21.7608 56.5862 21.8347 56.5607C22.2058 56.4394 22.4728 56.1846 22.6696 55.8542C22.7055 55.7953 22.7381 55.7337 22.679 55.8289C23.1511 55.1502 22.9665 54.4525 22.5186 54.0086C22.5389 54.014 22.5594 54.019 22.5804 54.0235C23.3531 54.191 24.1383 53.6855 24.3057 52.9128C24.4732 52.1401 23.9677 51.3548 23.195 51.1874C22.4225 51.02 21.6373 51.5255 21.4699 52.2982C21.3657 52.7788 21.5221 53.2646 21.8413 53.6031C21.3161 53.4445 20.7164 53.5684 20.3052 54.1584C19.9011 54.6077 19.8546 55.1806 20.0385 55.6625C19.4616 55.7527 18.9626 56.1903 18.8331 56.788C18.781 57.0283 18.794 57.27 18.8601 57.4939C18.2615 57.5653 17.7361 58.0113 17.6027 58.6266C17.5351 58.9388 17.5774 59.253 17.7026 59.5278C17.0674 59.5633 16.4957 60.0224 16.3557 60.6682C16.2585 61.1167 16.3882 61.5693 16.6649 61.9028C15.8569 61.8541 14.9971 62.4234 15.093 63.4642C15.0923 63.4584 15.0916 63.4526 15.0908 63.447C15.0851 63.5471 15.0909 63.6453 15.1066 63.7407C15.0162 63.653 14.9272 63.5641 14.8396 63.4737C12.046 60.5791 10.5247 56.7133 9.39802 52.922C8.58363 49.3549 8.30999 45.6476 8.56472 42.0015C8.74853 39.4736 9.34696 37.0142 9.98451 34.5707C10.9466 31.1042 11.3668 27.5232 11.7567 23.9556C11.8107 23.4601 11.8622 23.0172 11.957 22.5436C11.9832 22.3577 12.1244 22.0968 11.8767 22.021C11.8083 22.0061 11.7405 22.0308 11.6964 22.0798C11.588 22.0774 11.4805 22.169 11.4685 22.2985C11.3287 22.832 11.2478 23.3782 11.1386 23.9183C10.6559 26.5459 9.93189 29.1229 9.21533 31.6949C8.49453 34.3081 7.7172 36.895 6.90308 39.479C5.88084 42.3164 5.46106 45.3792 5.99977 48.3662C6.49842 51.3848 7.47671 54.3069 8.65305 57.1255C9.47257 58.928 10.59 60.5759 11.4439 62.3595C12.2474 63.883 13.255 65.2875 14.1105 66.781C14.4743 67.3267 14.7848 68.0485 15.3468 68.4012C15.5076 69.018 15.6706 69.6344 15.8498 70.2458C15.8527 70.2595 15.8558 70.2734 15.8592 70.2862C15.8125 70.2872 15.7601 70.3112 15.7019 70.365C15.6481 70.4421 15.6614 70.5429 15.7229 70.6077C15.9397 71.2132 16.1681 71.8154 16.4001 72.4164C16.401 72.4589 16.4164 72.4945 16.4407 72.5221C16.7874 73.4213 17.1393 74.3193 17.4631 75.2268C18.5979 78.8231 19.9996 82.3279 21.1918 85.9054C21.3992 86.4728 21.5866 87.056 21.7829 87.6372L29.7185 89.357C28.9175 87.7922 28.2001 86.1838 27.5598 84.5474C26.3543 81.4491 24.2984 77.6916 26.6024 74.6135C27.3788 73.6552 28.4297 73.0418 29.4243 72.3477C31.2497 71.0863 32.9785 69.6617 34.4269 67.9768C35.0531 67.1958 35.8816 66.3647 35.9358 65.3146C35.8622 64.8347 35.6099 64.3988 35.4359 63.9496C35.3558 63.7143 35.1344 63.3446 34.8805 63.6366C34.6972 63.7755 34.8196 64.0571 35.0398 63.9897C35.0811 64.0965 35.1278 64.2023 35.1756 64.3086C34.3947 63.8489 33.3293 64.3906 32.5418 64.6877C31.568 65.1233 30.5888 65.5514 29.5982 65.9479C27.8698 66.6625 26.167 67.4333 24.3388 67.8458C23.0356 68.2331 21.6547 68.3695 20.3122 68.156C19.9481 68.1054 19.5902 68.0249 19.2405 67.9168C19.3393 67.8706 19.4368 67.8212 19.5325 67.7703C19.7723 67.6317 20.0031 67.478 20.243 67.3394C20.6804 67.5129 21.1215 67.6791 21.5599 67.8477C21.6538 67.8842 21.7681 67.8313 21.8021 67.7348C21.8374 67.6367 21.7853 67.5285 21.6891 67.4924C21.3564 67.366 21.023 67.2381 20.6921 67.1091C20.7189 67.0967 20.7467 67.0855 20.7741 67.0745C20.9949 66.973 20.8329 66.6263 20.6123 66.7329C20.4763 66.7883 20.3443 66.8525 20.2165 66.9214C19.9096 66.7973 19.6043 66.6707 19.3011 66.5385C18.63 66.2495 17.9786 65.9049 17.3574 65.5117ZM28.266 44.6102C28.4107 43.9425 28.0527 43.2655 27.4543 42.986C27.8461 42.7974 28.153 42.4381 28.2505 41.9885C28.4114 41.2458 27.9504 40.4914 27.2281 40.2854C27.5531 40.0843 27.8007 39.7589 27.8864 39.3635C28.0538 38.5911 27.5483 37.8056 26.7756 37.6382C26.7167 37.6254 26.6576 37.6165 26.5987 37.6114C26.6382 37.5235 26.6689 37.4303 26.69 37.333C26.8574 36.5606 26.3519 35.7753 25.5792 35.6079C25.2933 35.5459 25.0059 35.5761 24.7484 35.678C24.7795 34.9876 24.3012 34.3387 23.6072 34.1883C23.2593 34.1129 22.9089 34.1739 22.6133 34.3344C22.5229 33.7577 22.0854 33.259 21.4879 33.1295C20.7152 32.9621 19.93 33.4676 19.7626 34.2403C19.5951 35.0127 20.1006 35.798 20.8733 35.9654C21.2213 36.0408 21.5715 35.9797 21.867 35.8192C21.9575 36.3959 22.395 36.8946 22.9924 37.0241C23.2783 37.0861 23.5658 37.0559 23.8232 36.954C23.7922 37.6444 24.2704 38.2933 24.9644 38.4437C25.0233 38.4565 25.0824 38.4654 25.1413 38.4705C25.1021 38.5584 25.0711 38.6516 25.0501 38.7486C24.8891 39.4912 25.3501 40.2457 26.0724 40.4516C25.7475 40.6528 25.4998 40.9781 25.4141 41.3735C25.2694 42.0412 25.6272 42.7182 26.2258 42.9979C25.8341 43.1866 25.527 43.5458 25.4296 43.9955C25.2621 44.7682 25.7676 45.5534 26.5403 45.7208C27.3131 45.8881 28.0985 45.3826 28.266 44.6102ZM19.6266 29.6343C20.0598 29.7715 20.5291 29.826 20.9727 29.9423C22.4327 30.2607 23.8707 30.6803 25.2459 31.2636C26.9363 32.0405 28.4771 33.0875 30.0014 34.143C32.0484 35.5921 33.8082 37.3834 35.4301 39.286C35.3495 39.4299 35.5136 39.6076 35.6609 39.5569C35.8893 39.8283 36.1165 40.1026 36.3402 40.3778C36.3326 40.5285 36.5213 40.6259 36.6448 40.5408C36.7219 40.4869 36.7498 40.4002 36.7277 40.3115C36.8552 40.3099 36.9545 40.158 36.891 40.0414C36.6882 39.6413 36.4665 39.2546 36.2281 38.8792C36.6456 38.2797 36.9728 37.6164 37.2493 36.9412C38.1257 35 38.6313 32.919 38.9855 30.8243C39.4588 31.516 40.2862 32.036 41.1188 32.0521C41.5788 32.0611 41.7787 31.6789 41.3786 31.3833C40.8844 30.9695 40.3714 30.5115 39.9922 29.9947C39.6853 29.572 39.4604 29.1211 39.2985 28.631C39.6338 25.8647 39.8216 23.0622 40.7189 20.4106C40.7748 20.2321 40.7015 19.9279 40.4647 19.9925C40.3693 20.0232 40.3078 20.1341 40.3435 20.2304C40.3443 20.2315 40.3439 20.2334 40.3446 20.2345C40.2611 20.2103 40.166 20.2482 40.1246 20.3281C39.9187 20.7333 39.7324 21.1507 39.5914 21.583C38.8975 24.078 38.6736 26.6739 38.1987 29.2144C37.8586 31.1982 37.6986 33.2573 36.8566 35.1089C36.4629 36.0232 35.9442 36.8708 35.3906 37.6897C34.3569 36.3532 33.121 35.1738 31.8129 34.0946C31.5141 33.821 31.2102 33.5524 30.8986 33.2923C31.4109 32.3757 31.8009 31.4001 32.1959 30.4288C32.8486 28.9525 33.3838 27.4328 33.805 25.88C34.261 26.7777 35.1982 27.4698 36.176 27.6717C36.5448 27.7334 37.6365 27.7501 37.3163 27.128C36.6382 26.6079 35.8429 26.2247 35.2599 25.5779C34.8489 25.1388 34.4821 24.6338 34.2373 24.0886C34.296 23.8177 34.3513 23.5444 34.4024 23.2711C34.7251 21.5447 34.9329 19.822 35.1958 18.1028C35.8906 18.917 36.9767 19.3691 38.0111 19.5662C38.173 19.5863 38.3549 19.6176 38.5063 19.5375C38.7069 19.4268 38.6115 19.1631 38.4344 19.0873C37.6856 18.6801 36.9568 18.2316 36.3568 17.6215C35.9964 17.26 35.7232 16.8589 35.4718 16.4322C35.5307 16.1093 35.5934 15.7869 35.6613 15.4648C36.2285 13.0292 36.4899 10.4454 37.6661 8.20616C37.7228 8.10654 37.7773 8.00939 37.8312 7.91407C37.9603 7.74649 38.0911 7.58102 38.1891 7.39762C38.2108 7.29753 38.1444 7.19434 38.0443 7.17265C37.9659 7.15763 37.911 7.18707 37.8653 7.23471C37.7263 7.30839 37.5794 7.554 37.4514 7.79953C36.1769 9.65021 35.5457 11.8644 35.0352 14.025C34.3495 16.7983 33.7674 19.5957 33.1576 22.3854C32.5548 25.5719 31.5612 28.6676 30.1869 31.602C30.0644 31.879 29.9415 32.1578 29.8128 32.4347C28.5182 31.4794 27.1146 30.6821 25.5781 30.1916C25.6698 30.0056 25.7515 29.8148 25.8454 29.6322C26.255 28.775 26.6445 27.8903 27.0242 27.0224C27.5668 25.6866 28.1656 24.3661 28.73 23.0332C28.7859 23.0545 28.8414 23.0776 28.8969 23.1007C29.6007 23.4136 30.2826 23.7751 30.987 24.0852C31.3078 24.1918 31.7147 24.483 32.0422 24.2885C32.2565 24.1192 31.9695 23.5164 31.7051 23.6195C31.8597 23.5482 31.833 23.2992 31.6628 23.2655C31.4264 23.1508 31.2072 23.0034 30.9813 22.8686C30.4037 22.5186 29.8176 22.1697 29.2106 21.8667C29.6656 20.7259 30.0767 19.5694 30.3878 18.3802C30.5967 17.6115 30.7621 16.8345 30.8992 16.0532C31.4412 16.3261 31.9983 16.5568 32.6193 16.5581C32.8878 16.5336 34.256 16.5537 34.1654 16.1762C34.1494 16.092 34.0705 16.0225 33.9854 16.0201C33.8898 15.8097 33.5829 15.83 33.3944 15.7498C32.6861 15.5176 31.9267 15.2018 31.4547 14.6024C31.3488 14.435 31.2613 14.3123 31.1742 14.2258C31.5501 11.2998 31.6843 8.33145 32.2972 5.44772C32.3219 5.34731 32.2515 5.24424 32.1524 5.22276C32.0968 5.21786 32.0537 5.22745 32.0185 5.24932C32.0001 5.23625 31.9789 5.22771 31.9565 5.22287C31.7155 5.18982 31.6501 5.49638 31.5727 5.66705C30.486 8.36939 30.2794 11.2907 29.9147 14.1505C28.6892 14.2067 27.4792 13.9776 26.3174 13.624C25.6267 13.8706 27.1371 14.5792 27.3635 14.717C28.075 15.068 28.8716 15.2648 29.6391 15.4279C29.6629 15.4382 29.688 15.4486 29.7121 15.459C29.4982 16.7025 29.2378 17.9401 28.8944 19.1526C28.679 19.9136 28.4141 20.6571 28.1209 21.3903C27.8576 21.2929 27.5894 21.2084 27.3161 21.1391C26.9105 20.9393 22.981 20.6664 24.4801 21.6692C25.4749 22.1148 26.5474 22.345 27.5918 22.6501C27.3985 23.0903 27.2 23.5271 27.0003 23.9642C26.1022 25.9026 25.2188 27.8794 24.6604 29.9441C23.1029 29.6104 21.5039 29.4636 19.9215 29.2963C19.8388 29.2966 19.7553 29.2765 19.675 29.2985C19.5337 29.3468 19.4986 29.5461 19.6266 29.6343Z" fill="#D0E3F1"/>
<path fillRule="evenodd" clipRule="evenodd" d="M19.1037 43.758C18.3911 42.3663 17.1355 41.1563 16.2544 39.9227C15.6069 39.0882 15.2301 38.0881 15.0567 37.0632C15.0474 36.8748 14.9497 36.6374 14.7206 36.6778C14.2699 36.7734 14.4757 38.0361 14.501 38.38C14.7857 40.7936 16.3624 42.33 17.7772 44.1287C18.3276 44.8922 18.8348 45.6478 19.1423 46.5202C19.2845 46.7709 19.2218 47.3157 19.5837 47.3265C19.6102 47.345 19.6402 47.3586 19.6731 47.3658C19.8061 47.3946 19.943 47.3305 19.9908 47.1985C20.0554 46.0535 19.6945 44.8632 19.1708 43.8579C19.1488 43.8245 19.1262 43.7911 19.1037 43.758Z" fill="#D0E3F1"/>
<path fillRule="evenodd" clipRule="evenodd" d="M19.2192 33.0592C19.4855 32.5943 20.0382 32.3264 20.5844 32.4448C21.2568 32.5905 21.6959 33.2725 21.5501 33.9452C21.4044 34.6175 20.7223 35.0566 20.05 34.9109C19.6546 34.8252 19.3397 34.554 19.1772 34.2084C18.9109 34.6734 18.3583 34.941 17.8121 34.8226C17.1397 34.6769 16.7004 33.9946 16.8461 33.3224C16.9918 32.6501 17.6739 32.211 18.3465 32.3568C18.7419 32.4422 19.0565 32.7136 19.2192 33.0592ZM7.62346 53.654C7.32986 53.9214 6.91599 54.0504 6.50462 53.9612C5.83224 53.8155 5.39316 53.1335 5.53888 52.4611C5.67274 51.8434 6.25929 51.4228 6.87505 51.4711C6.9496 51.7059 7.02624 51.9402 7.1061 52.1733C7.27575 52.6673 7.446 53.1619 7.62346 53.654ZM7.16824 56.0029C7.02252 56.6753 6.34025 57.1143 5.66787 56.9686C4.99549 56.8229 4.55642 56.1409 4.70214 55.4685C4.84787 54.7961 5.5299 54.357 6.20228 54.5027C6.87467 54.6485 7.31396 55.3306 7.16824 56.0029ZM6.48529 58.7524C6.33957 59.4248 5.65753 59.8639 4.98515 59.7182C4.31277 59.5724 3.8737 58.8904 4.01942 58.218C4.16514 57.5456 4.84718 57.1066 5.51956 57.2523C6.192 57.3978 6.63101 58.0801 6.48529 58.7524ZM5.98615 61.724C5.84043 62.3964 5.15816 62.8354 4.48577 62.6897C3.81339 62.544 3.37432 61.862 3.52004 61.1896C3.66577 60.5172 4.34781 60.0781 5.02019 60.2239C5.69286 60.3694 6.13187 61.0517 5.98615 61.724ZM5.3604 64.2641C5.21468 64.9365 4.53263 65.3755 3.86025 65.2298C3.18787 65.0841 2.74881 64.402 2.89453 63.7297C3.04025 63.0573 3.72228 62.6182 4.39466 62.7639C5.06705 62.9097 5.50607 63.5919 5.3604 64.2641ZM4.79256 66.9647C4.72515 67.2758 4.54288 67.5369 4.30001 67.7132C4.68221 68.0017 4.88877 68.499 4.7821 68.9912C4.70914 69.3279 4.50179 69.6059 4.22857 69.7816C4.72499 70.0355 5.01701 70.6085 4.8943 71.1747C4.74858 71.847 4.06654 72.2861 3.39416 72.1404C2.72178 71.9947 2.28253 71.3123 2.4282 70.6402C2.50116 70.3035 2.7085 70.0255 2.98173 69.8498C2.4853 69.5959 2.19352 69.023 2.31623 68.4568C2.38364 68.1458 2.56591 67.8847 2.80878 67.7083C2.42658 67.4199 2.22002 66.9225 2.32669 66.4303C2.47241 65.7579 3.15445 65.3189 3.82683 65.4646C4.49903 65.61 4.93828 66.2924 4.79256 66.9647ZM5.14125 73.9383C4.99553 74.6106 4.31348 75.0497 3.6411 74.904C2.96872 74.7583 2.52966 74.0762 2.67538 73.4038C2.8211 72.7315 3.50314 72.2924 4.17552 72.4381C4.8479 72.5838 5.28697 73.2659 5.14125 73.9383ZM5.90769 76.6848C6.05341 76.0124 5.61439 75.3302 4.94201 75.1844C4.26962 75.0387 3.58759 75.4778 3.44182 76.1504C3.2961 76.8228 3.73516 77.5048 4.40754 77.6505C5.07992 77.7963 5.76202 77.357 5.90769 76.6848ZM7.03131 77.9796C7.30843 77.5487 7.83884 77.3065 8.36297 77.4201C9.03536 77.5658 9.47438 78.2481 9.3287 78.9203C9.18298 79.5926 8.50094 80.0317 7.82856 79.886C7.5901 79.8343 7.38084 79.7149 7.21658 79.5524C6.93945 79.9833 6.40905 80.2255 5.88467 80.1118C5.21229 79.9661 4.77322 79.2841 4.91894 78.6117C5.06466 77.9393 5.7467 77.5002 6.41909 77.646C6.65796 77.698 6.867 77.8173 7.03131 77.9796ZM10.9498 76.7088C11.0955 76.0364 10.6565 75.3542 9.98408 75.2085C9.3117 75.0627 8.62967 75.5018 8.48389 76.1744C8.33817 76.8468 8.77724 77.5288 9.44962 77.6746C10.1219 77.8205 10.804 77.3812 10.9498 76.7088ZM12.2006 74.0652C12.0549 74.7376 11.3728 75.1769 10.7004 75.0311C10.028 74.8854 9.58877 74.2031 9.73449 73.5307C9.88021 72.8583 10.5622 72.4193 11.2349 72.565C11.9073 72.7105 12.3463 73.3928 12.2006 74.0652ZM13.0214 71.2937C12.8757 71.966 12.1936 72.4051 11.5212 72.2594C10.8489 72.1137 10.4098 71.4316 10.5555 70.7592C10.7012 70.0869 11.3833 69.6478 12.0557 69.7935C12.0639 69.7953 12.0721 69.7973 12.08 69.799C11.6049 69.5364 11.3299 68.9773 11.4496 68.4249C11.5953 67.7526 12.2773 67.3135 12.9497 67.4592C13.6221 67.6049 14.0612 68.287 13.9154 68.9594C13.7697 69.6317 13.0876 70.071 12.4152 69.9253C12.407 69.9235 12.3988 69.9215 12.3909 69.9198C12.8661 70.1819 13.1411 70.7411 13.0214 71.2937ZM15.0683 66.368C14.9226 67.0404 14.2406 67.4795 13.5682 67.3338C12.8958 67.188 12.4568 66.506 12.6025 65.8336C12.7482 65.1612 13.4302 64.7222 14.1026 64.8679C14.7748 65.0136 15.214 65.6959 15.0683 66.368ZM16.5412 63.9029C16.3955 64.5752 15.7135 65.0143 15.0411 64.8686C14.3687 64.7229 13.9296 64.0408 14.0754 63.3685C14.2211 62.6961 14.9032 62.2568 15.5755 62.4025C16.2479 62.5484 16.6869 63.2305 16.5412 63.9029ZM18.0484 61.6277C17.9027 62.3 17.2207 62.7391 16.5483 62.5934C15.8759 62.4477 15.4369 61.7656 15.5826 61.0932C15.7058 60.5245 16.2127 60.1229 16.773 60.1005C16.6518 59.8538 16.6086 59.5675 16.6702 59.283C16.7989 58.6893 17.3459 58.2776 17.9351 58.2896C17.7273 58.0068 17.6348 57.6401 17.7136 57.2765C17.8594 56.6041 18.5414 56.165 19.2138 56.3107L19.2309 56.3147C19.0018 56.0267 18.8964 55.6425 18.979 55.2615C19.1127 54.6445 19.698 54.2241 20.313 54.2715C20.2164 54.0415 20.1861 53.7821 20.2421 53.5239C20.3872 52.8544 21.0641 52.4161 21.7337 52.5564C21.4653 52.2628 21.3352 51.8474 21.4244 51.4358C21.5701 50.7634 22.2521 50.3244 22.9245 50.4701C23.5969 50.6158 24.036 51.2979 23.8902 51.9702C23.7451 52.6398 23.0682 53.078 22.3986 52.9378C22.667 53.2314 22.7971 53.6467 22.7079 54.0583C22.5742 54.6753 21.9889 55.0957 21.374 55.0483C21.4705 55.2783 21.5006 55.5376 21.4447 55.7956C21.299 56.468 20.6169 56.907 19.9446 56.7613L19.9274 56.7574C20.1565 57.0454 20.2619 57.4295 20.1794 57.8104C20.0507 58.404 19.5037 58.8158 18.9148 58.8038C19.1226 59.0866 19.215 59.4533 19.1362 59.8169C19.013 60.3857 18.506 60.7875 17.9458 60.8097C18.0672 61.0566 18.1102 61.3429 18.0484 61.6277ZM25.6558 49.538C25.5101 50.2104 24.8281 50.6495 24.1557 50.5037C23.4833 50.358 23.0442 49.676 23.19 49.0036C23.3357 48.3312 24.0177 47.8921 24.6901 48.0379C25.3623 48.1833 25.8015 48.8656 25.6558 49.538ZM27.2518 47.3571C27.3976 46.6847 26.9585 46.0026 26.2859 45.8569C25.6135 45.7112 24.9314 46.1502 24.7857 46.8226C24.64 47.495 25.0791 48.177 25.7514 48.3227C26.424 48.4688 27.1061 48.0294 27.2518 47.3571ZM28.197 44.9082C28.0513 45.5805 27.369 46.0196 26.6966 45.8738C26.0243 45.7281 25.585 45.046 25.7307 44.3736C25.8333 43.9 26.2024 43.5419 26.6466 43.4227C26.267 43.1338 26.0618 42.6383 26.1681 42.1477C26.2539 41.7519 26.5255 41.4371 26.8714 41.2747C26.3361 41.0387 26.0135 40.4411 26.1414 39.8512C26.1831 39.6588 26.2686 39.4855 26.3856 39.3396C25.9714 39.058 25.7417 38.539 25.853 38.0256C25.9987 37.3532 26.6808 36.9142 27.3531 37.0599C28.0255 37.2056 28.4646 37.8877 28.3189 38.56C28.2772 38.7524 28.1914 38.9257 28.0747 39.0716C28.4886 39.3532 28.7185 39.8723 28.6073 40.3856C28.5215 40.7813 28.2499 41.096 27.904 41.2587C28.4392 41.4947 28.7618 42.0922 28.634 42.6821C28.5313 43.156 28.1622 43.5138 27.718 43.633C28.0984 43.9218 28.3033 44.4176 28.197 44.9082ZM26.4794 36.2224C26.6252 35.55 26.1861 34.868 25.5137 34.7223C24.8413 34.5765 24.1593 35.0156 24.0136 35.688C23.8678 36.3604 24.3069 37.0424 24.9793 37.1881C25.6514 37.3338 26.3337 36.8948 26.4794 36.2224ZM22.7712 35.7402C22.0988 35.5945 21.6597 34.9125 21.8054 34.2401C21.9512 33.5677 22.6332 33.1286 23.3056 33.2743C23.978 33.4201 24.417 34.1021 24.2713 34.7745C24.1259 35.4467 23.4438 35.886 22.7712 35.7402Z" fill="#3C8CC6"/>
<path fillRule="evenodd" clipRule="evenodd" d="M36.2888 62.6606C36.5999 61.965 36.4291 61.3581 36.0532 60.9645C35.9177 60.3822 35.3321 59.919 34.7147 59.9805C33.8165 60.1467 33.21 60.9706 32.4545 61.4331C29.9088 63.2892 27.1603 64.8922 24.2156 66.0267C22.1052 66.7227 19.9089 67.3184 17.6824 67.4444C16.7281 67.4907 15.5916 67.1509 14.8113 67.8631C13.164 69.9104 15.599 72.8199 17.8866 72.8375C23.5033 72.9501 28.9332 70.1265 33.2602 66.7302C34.2216 65.7739 36.0229 64.2003 36.2888 62.6606Z" fill="#3C8CC6"/>
<path fillRule="evenodd" clipRule="evenodd" d="M15.4475 71.1796C15.2701 71.1411 15.0861 71.1013 15.0034 71.2922C15.2428 71.5509 15.4945 71.8 15.7562 72.0351C15.77 72.042 15.7825 72.0489 15.7941 72.0553C16.4442 72.3042 17.0889 72.5819 17.7719 72.7299C17.8104 72.7383 17.8489 72.7466 17.8877 72.754C23.9314 73.9943 31.9527 69.1198 35.4589 64.3751C35.8633 63.779 36.8969 61.6995 36.1008 61.1669L36.101 61.1659C36.0946 61.0647 36.0336 60.9649 35.9261 60.9354C35.5334 60.8533 35.4797 61.4044 35.2645 61.6242C31.7624 66.1358 26.5838 69.2896 21.0653 70.6524C19.3046 71.0929 17.4511 71.2559 15.6452 71.2114C15.5851 71.2094 15.5168 71.1946 15.4475 71.1796Z" fill="#303B43"/>
<path d="M16.3125 73.0003L35.3125 65.0003L50.3125 86.5003L52.3125 93.5003L22.3125 90.5003L16.3125 73.0003Z" fill="url(#paint0_linear_1_582)"/>
</g>
<defs>
<linearGradient id="paint0_linear_1_582" x1="44.3125" y1="66.5003" x2="43.3125" y2="88.0003" gradientUnits="userSpaceOnUse">
<stop stop-color="#1B3659" stop-opacity="0"/>
<stop offset="1" stop-color="#1B3659"/>
</linearGradient>
<clipPath id="clip0_1_582">
<rect width="54.625" height="92" fill="white"/>
</clipPath>
</defs>
</svg>
