<svg width="53" height="52" viewBox="0 0 53 52" fill="none" xmlns="http://www.w3.org/2000/svg">
<g clip-path="url(#clip0_618_7)">
<circle cx="26" cy="26" r="11.75" fill="white" stroke="black" stroke-width="0.5"/>
<circle cx="26" cy="26" r="11.75" fill="white" stroke="black" stroke-width="0.5"/>
<mask id="path-3-inside-1_618_7" fill="white">
<path d="M52 26C52 40.3594 40.3594 52 26 52C11.6406 52 0 40.3594 0 26C0 11.6406 11.6406 0 26 0C40.3594 0 52 11.6406 52 26ZM1.61406 26C1.61406 39.468 12.532 50.3859 26 50.3859C39.468 50.3859 50.3859 39.468 50.3859 26C50.3859 12.532 39.468 1.61406 26 1.61406C12.532 1.61406 1.61406 12.532 1.61406 26Z"/>
</mask>
<path d="M52 26C52 40.3594 40.3594 52 26 52C11.6406 52 0 40.3594 0 26C0 11.6406 11.6406 0 26 0C40.3594 0 52 11.6406 52 26ZM1.61406 26C1.61406 39.468 12.532 50.3859 26 50.3859C39.468 50.3859 50.3859 39.468 50.3859 26C50.3859 12.532 39.468 1.61406 26 1.61406C12.532 1.61406 1.61406 12.532 1.61406 26Z" fill="#D9D9D9" stroke="black" mask="url(#path-3-inside-1_618_7)"/>
<circle cx="48" cy="14" r="4.75" fill="white" stroke="black" stroke-width="0.5"/>
</g>
<defs>
<clipPath id="clip0_618_7">
<rect width="53" height="52" fill="white"/>
</clipPath>
</defs>
</svg>
